<?xml version="1.0" standalone="no"?><svg xmlns="http://www.w3.org/2000/svg" viewBox="0 0 1440 320"><path fill="#78bb5b" fill-opacity="1" d="M0,192L26.7,186.7C53.3,181,107,171,160,160C213.3,149,267,139,320,154.7C373.3,171,427,213,480,208C533.3,203,587,149,640,144C693.3,139,747,181,800,208C853.3,235,907,245,960,218.7C1013.3,192,1067,128,1120,133.3C1173.3,139,1227,213,1280,240C1333.3,267,1387,245,1413,234.7L1440,224L1440,320L1413.3,320C1386.7,320,1333,320,1280,320C1226.7,320,1173,320,1120,320C1066.7,320,1013,320,960,320C906.7,320,853,320,800,320C746.7,320,693,320,640,320C586.7,320,533,320,480,320C426.7,320,373,320,320,320C266.7,320,213,320,160,320C106.7,320,53,320,27,320L0,320Z"></path></svg>